{
  "source": "C:\\Users\\Peter\\Desktop\\stuff\\MIUN\\quantitative_research\\video_compression\\videos\\BVI-HD\\BVI-HD_CDVL_videos\\ORIG\\BubblesPitcher_1920x1080_60fps.mp4",
  "output": "C:\\Users\\Peter\\Desktop\\stuff\\MIUN\\quantitative_research\\video_compression\\compressed_videos\\BVI-HD\\h264\\1.5\\BubblesPitcher_1920x1080_60fps_h264.mp4",
  "codec": "h264",
  "ok": "Input #0, mov,mp4,m4a,3gp,3g2,mj2, from 'C:\\Users\\Peter\\Desktop\\stuff\\MIUN\\quantitative_research\\video_compression\\videos\\BVI-HD\\BVI-HD_CDVL_videos\\ORIG\\BubblesPitcher_1920x1080_60fps.mp4':\n  Metadata:\n    major_brand     : isom\n    minor_version   : 512\n    compatible_brands: isomiso2avc1mp41\n    encoder         : Lavf54.28.101\n  Duration: 00:00:05.00, start: 0.000000, bitrate: 188849 kb/s\n  Stream #0:0[0x1](und): Video: h264 (High 4:4:4 Predictive) (avc1 / 0x31637661), yuv420p(progressive), 1920x1080, 188844 kb/s, 60 fps, 60 tbr, 60 tbn (default)\n    Metadata:\n      handler_name    : VideoHandler\n      vendor_id       : [0][0][0][0]\n[out#0/mp4 @ 000002b68a8cd6c0] Codec AVOption b:a (set bitrate (in bits/s)) has not been used for any stream. The most likely reason is either wrong type (e.g. a video option with no video streams) or that it is a private option of some decoder which was not actually used for any stream.\nStream mapping:\n  Stream #0:0 -> #0:0 (h264 (native) -> h264 (libx264))\nPress [q] to stop, [?] for help\n[libx264 @ 000002b68a9c0240] using cpu capabilities: MMX2 SSE2Fast SSSE3 SSE4.2 AVX FMA3 BMI2 AVX2\n[libx264 @ 000002b68a9c0240] profile High, level 5.0, 4:2:0, 8-bit\n[libx264 @ 000002b68a9c0240] 264 - core 165 r3222 b35605a - H.264/MPEG-4 AVC codec - Copyleft 2003-2025 - http://www.videolan.org/x264.html - options: cabac=1 ref=5 deblock=1:0:0 analyse=0x3:0x113 me=hex subme=8 psy=1 psy_rd=1.00:0.00 mixed_ref=1 me_range=16 chroma_me=1 trellis=2 8x8dct=1 cqm=0 deadzone=21,11 fast_pskip=1 chroma_qp_offset=-2 threads=18 lookahead_threads=3 sliced_threads=0 nr=0 decimate=1 interlaced=0 bluray_compat=0 constrained_intra=0 bframes=3 b_pyramid=2 b_adapt=1 b_bias=0 direct=3 weightb=1 open_gop=0 weightp=2 keyint=250 keyint_min=25 scenecut=40 intra_refresh=0 rc_lookahead=50 rc=cbr mbtree=1 bitrate=1500 ratetol=1.0 qcomp=0.60 qpmin=0 qpmax=69 qpstep=4 vbv_maxrate=1500 vbv_bufsize=1500 nal_hrd=none filler=0 ip_ratio=1.40 aq=1:1.00\nOutput #0, mp4, to 'C:\\Users\\Peter\\Desktop\\stuff\\MIUN\\quantitative_research\\video_compression\\compressed_videos\\BVI-HD\\h264\\1.5\\BubblesPitcher_1920x1080_60fps_h264.mp4':\n  Metadata:\n    major_brand     : isom\n    minor_version   : 512\n    compatible_brands: isomiso2avc1mp41\n    encoder         : Lavf62.3.100\n  Stream #0:0(und): Video: h264 (avc1 / 0x31637661), yuv420p(tv, progressive), 1920x1080, q=2-31, 1500 kb/s, 60 fps, 15360 tbn (default)\n    Metadata:\n      encoder         : Lavc62.11.100 libx264\n      handler_name    : VideoHandler\n      vendor_id       : [0][0][0][0]\n    Side data:\n      cpb: bitrate max/min/avg: 1500000/0/1500000 buffer size: 1500000 vbv_delay: N/A\nframe=    0 fps=0.0 q=0.0 size=       0KiB time=N/A bitrate=N/A speed=N/A elapsed=0:00:01.37    \nframe=    0 fps=0.0 q=0.0 size=       0KiB time=N/A bitrate=N/A speed=N/A elapsed=0:00:01.92    \nframe=    0 fps=0.0 q=0.0 size=       0KiB time=N/A bitrate=N/A speed=N/A elapsed=0:00:02.60    \nframe=   24 fps=7.3 q=37.0 size=       0KiB time=00:00:00.30 bitrate=   1.3kbits/s speed=0.0915x elapsed=0:00:03.27    \nframe=   48 fps= 12 q=38.0 size=       0KiB time=00:00:00.70 bitrate=   0.5kbits/s speed=0.178x elapsed=0:00:03.93    \nframe=   68 fps= 15 q=39.0 size=       0KiB time=00:00:01.10 bitrate=   0.3kbits/s speed=0.239x elapsed=0:00:04.59    \nframe=   96 fps= 19 q=41.0 size=     256KiB time=00:00:01.50 bitrate=1398.4kbits/s speed=0.291x elapsed=0:00:05.15    \nframe=  107 fps= 19 q=41.0 size=     256KiB time=00:00:01.75 bitrate=1198.6kbits/s speed=0.305x elapsed=0:00:05.73    \nframe=  109 fps= 17 q=42.0 size=     256KiB time=00:00:01.78 bitrate=1176.2kbits/s speed=0.277x elapsed=0:00:06.43    \nframe=  110 fps= 15 q=42.0 size=     256KiB time=00:00:01.80 bitrate=1165.3kbits/s speed=0.254x elapsed=0:00:07.09    \nframe=  118 fps= 15 q=44.0 size=     256KiB time=00:00:01.93 bitrate=1084.9kbits/s speed=0.252x elapsed=0:00:07.68    \nframe=  129 fps= 16 q=45.0 size=     256KiB time=00:00:02.11 bitrate= 991.0kbits/s speed=0.257x elapsed=0:00:08.24    \nframe=  139 fps= 16 q=46.0 size=     256KiB time=00:00:02.25 bitrate= 932.2kbits/s speed=0.254x elapsed=0:00:08.84    \nframe=  149 fps= 16 q=47.0 size=     256KiB time=00:00:02.40 bitrate= 874.0kbits/s speed=0.252x elapsed=0:00:09.52    \nframe=  157 fps= 15 q=48.0 size=     256KiB time=00:00:02.55 bitrate= 822.6kbits/s speed=0.249x elapsed=0:00:10.22    \nframe=  166 fps= 15 q=48.0 size=     256KiB time=00:00:02.70 bitrate= 776.9kbits/s speed=0.248x elapsed=0:00:10.90    \nframe=  174 fps= 15 q=49.0 size=     512KiB time=00:00:02.85 bitrate=1471.8kbits/s speed=0.246x elapsed=0:00:11.60    \nframe=  185 fps= 15 q=49.0 size=     512KiB time=00:00:03.05 bitrate=1375.3kbits/s speed=0.251x elapsed=0:00:12.14    \nframe=  195 fps= 15 q=49.0 size=     512KiB time=00:00:03.21 bitrate=1304.0kbits/s speed=0.253x elapsed=0:00:12.69    \nframe=  205 fps= 15 q=49.0 size=     512KiB time=00:00:03.38 bitrate=1239.8kbits/s speed=0.256x elapsed=0:00:13.22    \nframe=  217 fps= 16 q=50.0 size=     512KiB time=00:00:03.58 bitrate=1170.6kbits/s speed=0.26x elapsed=0:00:13.76    \nframe=  230 fps= 16 q=50.0 size=     512KiB time=00:00:03.78 bitrate=1108.7kbits/s speed=0.265x elapsed=0:00:14.26    \nframe=  268 fps= 18 q=49.0 size=     768KiB time=00:00:04.40 bitrate=1430.0kbits/s speed=0.297x elapsed=0:00:14.80    \n[mp4 @ 000002b68a8cd7c0] Starting second pass: moving the moov atom to the beginning of the file\n[out#0/mp4 @ 000002b68a8cd6c0] video:936KiB audio:0KiB subtitle:0KiB other streams:0KiB global headers:0KiB muxing overhead: 0.317804%\nframe=  300 fps= 20 q=-1.0 Lsize=     939KiB time=00:00:04.96 bitrate=1549.2kbits/s speed=0.328x elapsed=0:00:15.14    \n[libx264 @ 000002b68a9c0240] frame I:2     Avg QP:28.45  size:  9444\n[libx264 @ 000002b68a9c0240] frame P:207   Avg QP:42.07  size:  3662\n[libx264 @ 000002b68a9c0240] frame B:91    Avg QP:32.23  size:  1990\n[libx264 @ 000002b68a9c0240] consecutive B-frames: 59.3%  0.0%  2.0% 38.7%\n[libx264 @ 000002b68a9c0240] mb I  I16..4: 31.5% 68.3%  0.2%\n[libx264 @ 000002b68a9c0240] mb P  I16..4:  4.1%  8.8%  0.0%  P16..4: 11.1%  0.4%  0.4%  0.0%  0.0%    skip:75.3%\n[libx264 @ 000002b68a9c0240] mb B  I16..4:  0.5%  0.5%  0.0%  B16..8: 13.3%  0.4%  0.0%  direct: 0.5%  skip:84.9%  L0:43.3% L1:55.9% BI: 0.8%\n[libx264 @ 000002b68a9c0240] 8x8 transform intra:67.5% inter:97.2%\n[libx264 @ 000002b68a9c0240] direct mvs  spatial:89.0% temporal:11.0%\n[libx264 @ 000002b68a9c0240] coded y,uvDC,uvAC intra: 2.5% 28.6% 0.6% inter: 0.6% 3.6% 0.0%\n[libx264 @ 000002b68a9c0240] i16 v,h,dc,p: 47% 36%  6% 11%\n[libx264 @ 000002b68a9c0240] i8 v,h,dc,ddl,ddr,vr,hd,vl,hu:  7%  2% 86%  1%  1%  1%  1%  1%  0%\n[libx264 @ 000002b68a9c0240] i4 v,h,dc,ddl,ddr,vr,hd,vl,hu: 15%  5% 47%  7%  7%  6%  5%  5%  3%\n[libx264 @ 000002b68a9c0240] i8c dc,h,v,p: 84% 10%  6%  0%\n[libx264 @ 000002b68a9c0240] Weighted P-Frames: Y:0.5% UV:0.5%\n[libx264 @ 000002b68a9c0240] ref P L0: 44.0%  3.8% 19.8% 11.1% 10.9% 10.3%\n[libx264 @ 000002b68a9c0240] ref B L0: 71.5% 17.5%  8.3%  2.8%\n[libx264 @ 000002b68a9c0240] ref B L1: 92.1%  7.9%\n[libx264 @ 000002b68a9c0240] kb/s:1532.81\n",
  "seconds": 16.105698585510254,
  "probe_out": {}
}